<svg width="250" height="96" viewBox="0 0 250 96" fill="none" xmlns="http://www.w3.org/2000/svg">
<path d="M58.5847 66.3154C55.3757 66.3154 52.5961 65.6637 50.2457 64.3605C47.8954 63.0123 46.0876 61.0124 44.822 58.3609C43.5564 55.7095 42.9237 52.4063 42.9237 48.4515C42.9237 42.6542 44.2344 38.3175 46.8559 35.4412C49.5225 32.5201 53.161 31.0595 57.7712 31.0595C61.3869 31.0595 64.2796 31.8685 66.4491 33.4863C68.6639 35.1042 70.2457 37.2838 71.1949 40.0252C72.144 42.7666 72.5961 45.8675 72.5508 49.3279H45.3644L45.7034 44.8788H69.3644L67.4661 45.5529C67.3305 42.1823 66.4717 39.6657 64.8898 38.0029C63.353 36.34 60.9802 35.5087 57.7712 35.5087C55.5564 35.5087 53.7034 35.9131 52.2118 36.7221C50.7655 37.531 49.6808 38.9466 48.9576 40.9689C48.2344 42.9463 47.8729 45.7327 47.8729 49.3279C47.8729 53.4175 48.822 56.5408 50.7203 58.698C52.6639 60.8102 55.3757 61.8663 58.8559 61.8663C60.5283 61.8663 62.0649 61.7539 63.4661 61.5292C64.8672 61.2596 66.1554 60.9001 67.3305 60.4507C68.5056 60.0012 69.5452 59.5069 70.4491 58.9676V63.956C68.822 64.72 67.0141 65.3043 65.0254 65.7087C63.0819 66.1132 60.935 66.3154 58.5847 66.3154ZM131.677 66.3154C126.389 66.3154 122.457 64.765 119.88 61.6641C117.348 58.5182 116.084 54.159 116.084 48.5864C116.084 42.7441 117.416 38.3624 120.084 35.4412C122.796 32.5201 126.614 31.0595 131.541 31.0595C135.202 31.0595 138.185 31.8011 140.49 33.2841C142.796 34.7222 144.49 36.767 145.575 39.4185C146.66 42.0251 147.201 45.081 147.201 48.5864C147.201 54.1141 145.846 58.4508 143.135 61.5967C140.467 64.7425 136.648 66.3154 131.677 66.3154ZM131.609 61.8663C134.365 61.8663 136.513 61.282 138.05 60.1136C139.586 58.9002 140.671 57.3048 141.304 55.3274C141.982 53.3051 142.321 51.0581 142.321 48.5864C142.321 45.9349 141.982 43.6429 141.304 41.7105C140.626 39.7331 139.496 38.2051 137.914 37.1265C136.377 36.0479 134.275 35.5087 131.609 35.5087C128.897 35.5087 126.772 36.0929 125.236 37.2613C123.699 38.4298 122.592 40.0028 121.914 41.9801C121.281 43.9126 120.965 46.1146 120.965 48.5864C120.965 52.5412 121.755 55.7543 123.338 58.2261C124.919 60.6529 127.677 61.8663 131.609 61.8663ZM170.547 66.3154C167.564 66.3154 165.01 65.7986 162.886 64.765C160.762 63.7314 159.135 62.2258 158.004 60.2484C156.919 58.2711 156.377 55.8443 156.377 52.9681V31.6662H161.258V51.8895C161.258 55.305 162.004 57.8216 163.496 59.4395C165.033 61.0124 167.382 61.7989 170.547 61.7989C173.711 61.7989 176.038 61.0124 177.53 59.4395C179.067 57.8216 179.835 55.305 179.835 51.8895V31.6662H184.716V52.9681C184.716 57.2374 183.473 60.5405 180.987 62.8775C178.547 65.1694 175.067 66.3154 170.547 66.3154ZM223.301 43.3957V65.3043H218.419V43.3957C218.419 42.5868 218.306 41.7329 218.08 40.8341C217.899 39.9353 217.516 39.0814 216.928 38.2725C216.34 37.4186 215.436 36.7445 214.216 36.2502C212.996 35.7109 211.369 35.4412 209.335 35.4412C207.933 35.4412 206.487 35.5536 204.996 35.7783C203.504 36.003 201.99 36.34 200.453 36.7895V65.3043H195.572V34.3627C196.657 33.8234 197.764 33.3515 198.894 32.9471C200.069 32.4976 201.245 32.1381 202.419 31.8685C203.64 31.5988 204.86 31.3966 206.08 31.2618C207.346 31.127 208.611 31.0595 209.877 31.0595C213.177 31.0595 215.798 31.5539 217.742 32.5426C219.685 33.4863 221.086 34.8795 221.945 36.7221C222.848 38.5646 223.301 40.7891 223.301 43.3957ZM216.86 35.7109C218.352 34.5873 219.865 33.6886 221.403 33.0145C222.94 32.3404 224.521 31.846 226.148 31.5314C227.821 31.2168 229.493 31.0595 231.165 31.0595C234.465 31.0595 237.086 31.5539 239.03 32.5426C240.973 33.4863 242.374 34.8795 243.233 36.7221C244.137 38.5646 244.589 40.7891 244.589 43.3957V65.3043H239.708V43.3957C239.708 42.5868 239.594 41.7329 239.369 40.8341C239.187 39.9353 238.804 39.0814 238.216 38.2725C237.628 37.4186 236.725 36.7445 235.504 36.2502C234.284 35.7109 232.657 35.4412 230.623 35.4412C229.221 35.4412 227.775 35.6435 226.284 36.0479C224.792 36.4524 223.279 37.149 221.742 38.1377L216.86 35.7109Z" fill="#0F0F0F"/>
<path d="M95.2542 50.6087L84.1356 65.3043H78.644L92.339 46.9685L95.2542 50.6087ZM109.966 65.3043H103.729L78.983 31.6662H85.1525L109.966 65.3043ZM93.0169 46.4966L104.203 31.6662H109.83L95.7288 50.6087L93.0169 46.4966Z" fill="#3D32F5"/>
<path d="M114.012 70.596L107.627 62.1913L103.568 65.2402L109.953 73.6449L114.012 70.596Z" fill="#3D32F5"/>
<path d="M244.703 70.5707H5.29663V75.8372H244.703V70.5707Z" fill="#3D32F5"/>
<path d="M19.6017 29.5344C22.5847 29.5344 25.1384 30.0512 27.2627 31.0848C29.387 32.1184 31.0141 33.624 32.1441 35.6014C33.2288 37.5787 33.7712 40.0055 33.7712 42.8817V64.1836H28.8898V43.9603C28.8898 40.5448 28.1441 38.0281 26.6525 36.4103C25.1158 34.8374 22.7656 34.0509 19.6017 34.0509C16.4378 34.0509 14.1102 34.8374 12.6186 36.4103C11.0819 38.0281 10.3135 40.5448 10.3135 43.9603V64.1836H5.43219V42.8817C5.43219 38.6124 6.67514 35.3093 9.161 32.9723C11.6017 30.6804 15.0819 29.5344 19.6017 29.5344Z" fill="#0F0F0F"/>
</svg>
